# xmcd CD database file
#
# Track frame offsets:
#	187
#	26942
#	47862
#	71362
#
# Disc length: 1304 seconds
#
# Revision: 0
# Processed by: cddbd v1.5PL3 Copyright (c) Steve Scherf et al.
# Submitted via: CDex 1.50beta9
#
DISCID=33051604
DTITLE=井上昌己 - 熱愛-完結編-
DYEAR=1999
DGENRE=JPop
TTITLE0=熱愛（Single Remix)
TTITLE1=好きになってしまった
TTITLE2=二人の世界
TTITLE3=熱愛（Original Backing Track）
EXTD=YEAR: 1999
EXTT0=
EXTT1=
EXTT2=
EXTT3=
PLAYORDER=
